<?xml version="1.0" standalone="no"?>
<!DOCTYPE svg PUBLIC "-//W3C//DTD SVG 20010904//EN"
 "http://www.w3.org/TR/2001/REC-SVG-20010904/DTD/svg10.dtd">
<svg version="1.0" xmlns="http://www.w3.org/2000/svg"
 width="2144.000000pt" height="2144.000000pt" viewBox="0 0 2144.000000 2144.000000"
 preserveAspectRatio="xMidYMid meet">
<metadata>
Created by potrace 1.14, written by Peter Selinger 2001-2017
</metadata>
<g transform="translate(0.000000,2144.000000) scale(0.100000,-0.100000)"
fill="#000000" stroke="none">
<path d="M4137 14504 c-1 -1 -42 -5 -92 -8 -49 -4 -103 -9 -120 -11 -16 -2
-52 -7 -80 -10 -95 -12 -120 -17 -232 -41 -352 -75 -679 -201 -1043 -401 -197
-108 -484 -300 -637 -424 -87 -72 -185 -161 -181 -165 2 -1 55 13 118 33 63
19 135 41 160 48 25 7 133 41 240 75 204 65 449 137 487 144 13 3 26 7 31 10
5 3 19 7 33 9 13 3 42 10 64 15 22 6 54 14 72 17 18 3 42 9 55 14 13 5 26 9
31 9 7 0 75 11 110 18 10 2 26 5 35 8 9 3 42 8 72 11 30 4 75 11 101 15 25 5
79 12 120 16 40 3 77 8 80 10 16 9 258 19 454 19 186 -1 288 -7 455 -30 14 -1
50 -6 80 -10 30 -4 58 -9 61 -11 4 -2 24 -6 45 -9 22 -4 53 -10 69 -15 17 -5
44 -11 60 -14 17 -3 50 -10 75 -16 25 -7 54 -13 65 -16 11 -2 76 -20 145 -39
69 -20 139 -40 155 -45 17 -4 134 -40 260 -80 127 -40 244 -76 260 -80 17 -5
89 -25 160 -45 116 -33 368 -92 420 -100 11 -1 63 -10 115 -18 92 -16 114 -19
210 -31 257 -33 755 -39 932 -11 13 2 47 6 77 9 72 8 169 23 266 40 117 21
126 23 285 62 348 86 677 220 1030 418 36 20 75 42 88 48 78 39 -56 44 -318
13 -19 -3 -57 -7 -85 -10 -71 -8 -136 -16 -166 -21 -27 -4 -66 -9 -164 -20
-27 -3 -61 -7 -75 -9 -14 -2 -52 -6 -85 -10 -33 -3 -73 -8 -90 -10 -253 -30
-782 -21 -1125 20 -138 16 -334 49 -455 76 -49 11 -99 22 -110 24 -82 18 -411
111 -698 199 -421 129 -550 167 -697 205 -127 32 -337 76 -415 86 -27 3 -63 8
-80 10 -151 20 -266 27 -458 29 -93 1 -169 1 -170 0z"/>
<path d="M4069 13576 c-2 -2 -40 -7 -84 -10 -44 -4 -91 -8 -105 -10 -14 -3
-47 -7 -75 -11 -27 -3 -57 -8 -65 -10 -8 -3 -33 -7 -55 -10 -200 -30 -530
-135 -790 -253 -378 -171 -830 -460 -1081 -689 -37 -35 -63 -63 -58 -63 12 0
103 27 304 90 736 231 1021 303 1360 344 19 2 55 7 80 10 248 33 660 38 863
12 18 -3 53 -7 78 -11 53 -7 70 -9 159 -26 36 -6 74 -13 85 -14 94 -13 463
-115 895 -248 373 -115 645 -184 835 -212 22 -3 67 -10 100 -15 33 -5 83 -12
110 -15 28 -3 59 -8 70 -10 130 -26 718 -26 920 -1 17 2 57 7 90 11 33 4 69 9
80 11 70 10 105 16 145 24 25 5 59 12 75 15 43 7 74 13 93 19 9 3 31 8 49 11
107 18 511 150 653 212 109 49 310 150 413 207 64 36 122 66 127 66 6 0 10 5
10 10 0 11 -52 25 -85 23 -87 -5 -184 -14 -205 -17 -14 -3 -52 -7 -85 -10 -60
-5 -88 -8 -180 -22 -27 -4 -53 -7 -56 -6 -3 0 -37 -4 -75 -9 -108 -15 -124
-17 -199 -24 -38 -4 -75 -8 -82 -10 -79 -25 -872 -25 -1006 1 -9 1 -54 6 -98
9 -45 4 -91 8 -102 10 -10 3 -45 7 -76 11 -31 3 -65 8 -76 10 -11 3 -36 7 -55
10 -52 8 -320 64 -355 75 -16 5 -93 25 -170 45 -77 20 -147 39 -155 42 -8 3
-18 6 -22 7 -5 2 -9 3 -10 5 -2 1 -10 3 -18 5 -8 2 -40 11 -70 19 -30 9 -62
18 -70 20 -8 3 -60 19 -115 36 -140 44 -265 83 -370 114 -49 15 -110 33 -135
41 -80 24 -353 93 -435 109 -117 24 -125 25 -170 31 -22 3 -51 8 -65 10 -14 2
-52 7 -85 11 -33 4 -73 9 -90 11 -42 6 -560 15 -566 9z"/>
<path d="M4098 12645 c-2 -2 -41 -6 -88 -9 -47 -4 -101 -9 -120 -12 -349 -49
-616 -122 -920 -251 -177 -76 -438 -211 -547 -285 -23 -15 -44 -28 -48 -28 -3
0 -18 -9 -33 -19 -15 -10 -58 -39 -97 -64 -164 -105 -473 -348 -488 -383 -6
-12 227 57 743 221 302 96 677 178 960 210 25 3 59 7 75 10 28 4 63 7 225 20
84 7 380 8 445 1 28 -3 82 -8 121 -11 39 -3 80 -7 90 -9 11 -2 42 -7 69 -10
94 -13 142 -22 280 -50 142 -29 410 -106 780 -221 66 -21 120 -37 120 -36 0 1
14 -3 30 -9 17 -7 37 -13 45 -16 8 -2 53 -15 100 -29 47 -14 94 -27 105 -30
11 -2 74 -18 140 -34 66 -16 137 -32 159 -35 21 -4 41 -8 45 -10 3 -2 26 -7
51 -10 51 -7 84 -12 155 -26 28 -5 77 -12 110 -15 33 -4 71 -8 85 -11 14 -2
63 -6 110 -10 47 -3 101 -7 120 -9 46 -5 419 -5 490 0 125 9 208 16 231 19 13
3 51 8 84 11 153 19 354 58 515 102 52 14 102 26 110 28 66 13 377 127 505
185 151 68 479 242 490 260 9 15 -52 22 -147 16 -51 -4 -104 -8 -118 -10 -14
-3 -56 -7 -93 -11 -37 -3 -76 -8 -85 -10 -9 -1 -46 -6 -82 -10 -36 -3 -72 -8
-80 -10 -8 -2 -44 -7 -80 -10 -36 -4 -72 -8 -80 -10 -8 -1 -46 -6 -83 -10 -37
-3 -76 -8 -85 -10 -10 -1 -62 -6 -117 -10 -55 -4 -118 -9 -140 -11 -104 -10
-512 -3 -680 11 -148 12 -201 17 -310 31 -167 21 -175 22 -315 50 -120 24
-372 85 -435 105 -16 5 -68 20 -115 33 -77 22 -162 48 -555 168 -310 95 -628
180 -760 202 -142 24 -295 46 -375 53 -51 4 -508 11 -512 8z"/>
<path d="M8431 11103 c-141 -36 -294 -182 -333 -318 -18 -65 -17 -193 2 -262
58 -209 250 -333 495 -320 160 8 266 59 357 172 62 77 87 148 92 265 14 311
-295 545 -613 463z"/>
<path d="M11675 11110 c-129 -27 -264 -132 -325 -255 -37 -74 -42 -92 -45
-184 -5 -129 31 -231 112 -321 49 -55 132 -108 203 -130 56 -17 230 -23 290
-9 164 37 298 161 339 316 58 218 -35 425 -243 542 -76 43 -228 62 -331 41z"/>
<path d="M1783 9165 l0 -1755 522 0 523 0 0 608 c1 334 1 633 1 665 l1 57 145
0 145 0 0 465 0 465 -145 0 -145 0 -1 68 c0 37 0 318 0 625 l0 557 -523 0
-523 0 0 -1755z"/>
<path d="M3299 10918 c-1 -2 -2 -792 -3 -1755 l-1 -1753 525 0 525 0 -2 1728
c-1 950 -2 1739 -2 1755 l-1 27 -520 0 c-286 0 -521 -1 -521 -2z"/>
<path d="M5955 10016 c-275 -44 -518 -168 -715 -366 -132 -132 -178 -190 -248
-320 -146 -268 -189 -583 -126 -925 70 -385 337 -730 703 -910 186 -92 335
-126 571 -130 96 -2 195 0 220 3 l45 7 1 498 c2 458 0 498 -15 491 -132 -54
-237 -65 -337 -33 -80 25 -154 90 -197 173 -30 57 -32 68 -32 166 0 96 3 110
29 161 89 177 285 258 465 194 104 -38 193 -154 221 -288 8 -42 12 -241 12
-693 l0 -634 485 0 484 0 -4 738 c-2 405 -7 753 -11 772 -4 19 -14 71 -23 115
-83 423 -356 756 -737 900 -73 27 -233 70 -301 80 -86 13 -411 13 -490 1z"/>
<path d="M10569 10026 c-2 -2 -26 -6 -54 -10 -170 -20 -356 -96 -480 -194 -73
-58 -181 -174 -231 -248 -97 -146 -137 -251 -190 -504 -4 -19 -9 -401 -11
-847 l-4 -813 483 0 483 0 1 668 c0 711 1 726 50 823 44 89 133 135 235 125
46 -5 123 -30 147 -49 9 -7 12 96 12 512 l0 521 -27 2 c-16 0 -39 3 -53 5 -35
6 -356 14 -361 9z"/>
<path d="M16509 10026 c-2 -2 -32 -7 -66 -10 -150 -16 -342 -82 -488 -168
-253 -149 -476 -410 -573 -671 -24 -63 -59 -196 -66 -248 -3 -19 -8 -56 -11
-84 -9 -61 -8 -248 1 -312 18 -137 23 -162 50 -250 62 -206 170 -382 336 -545
203 -200 436 -316 723 -362 87 -14 389 -16 441 -3 12 3 37 8 55 11 59 10 71
13 183 51 59 20 126 47 147 61 21 13 43 24 48 24 7 0 195 122 210 136 2 1 -61
81 -140 176 -79 95 -151 181 -159 192 -8 10 -20 23 -25 30 -6 6 -55 65 -109
131 -55 66 -103 125 -108 130 -6 7 -13 5 -21 -5 -45 -58 -152 -115 -235 -125
-269 -33 -462 271 -417 659 21 183 117 335 253 403 66 32 180 39 259 14 96
-29 184 -131 199 -230 l5 -31 -245 0 c-135 0 -246 -2 -246 -4 0 -2 -9 -40 -21
-86 -21 -84 -25 -220 -8 -285 4 -16 10 -42 13 -58 l6 -27 733 2 732 3 2 25 c8
97 2 299 -12 384 -66 408 -332 761 -715 951 -63 32 -205 81 -270 94 -30 6 -68
13 -85 17 -34 7 -369 16 -376 10z"/>
<path d="M19330 10027 c-3 -3 -25 -7 -50 -10 -375 -46 -675 -284 -830 -662
-14 -33 -49 -148 -54 -175 -2 -14 -7 -36 -10 -50 -3 -14 -9 -41 -13 -60 -3
-19 -8 -401 -10 -847 l-4 -813 483 0 483 0 1 673 c1 601 3 679 18 736 43 160
150 233 296 202 28 -6 69 -20 90 -30 l40 -19 0 518 0 517 -42 7 c-50 8 -392
19 -398 13z"/>
<path d="M8080 8695 l0 -1285 483 0 482 0 0 1285 0 1285 -482 0 -483 0 0
-1285z"/>
<path d="M11300 8695 l0 -1285 483 0 482 0 0 1285 0 1285 -482 0 -483 0 0
-1285z"/>
<path d="M12585 9483 l0 -498 403 -3 c221 -1 402 -5 402 -9 0 -4 -173 -355
-385 -780 -212 -425 -385 -776 -385 -778 0 -3 556 -5 1235 -5 l1235 0 0 505 0
505 -450 0 c-247 0 -450 2 -450 4 0 3 87 177 194 388 339 670 586 1161 586
1165 0 1 -537 3 -1193 3 l-1192 0 0 -497z"/>
</g>
</svg>
