<?xml version="1.0" encoding="UTF-8"?> <svg xmlns="http://www.w3.org/2000/svg" width="40" height="40" viewBox="0 0 40 40" fill="none"><g id="40x40_food_v2"><path id="Path" d="M14.53 21.5002C14.5078 26.0187 17.8394 29.8531 22.3167 30.4622C26.794 31.0713 31.0288 28.2662 32.2145 23.906C33.4002 19.5458 31.1691 14.9824 27 13.2402V18.3502C27.0027 19.3191 26.619 20.249 25.9339 20.9341C25.2488 21.6192 24.3188 22.0029 23.35 22.0002H19V13.7502C16.2406 15.3576 14.5395 18.3068 14.53 21.5002Z" fill="#E2E2E6"></path><path id="Path_2" d="M19 11.5097V7.71973C17.5714 8.17598 16.2221 8.85063 15 9.71973V14.5497C16.081 13.2414 17.45 12.2009 19 11.5097Z" fill="#EEEEEF"></path><path id="Path_3" d="M27 7.44043V11.1104C31.2629 12.5343 34.2308 16.4084 34.4959 20.895C34.761 25.3816 32.2699 29.5782 28.2044 31.4942C24.1388 33.4102 19.3166 32.6601 16.025 29.5998C12.7334 26.5395 11.6347 21.7846 13.25 17.5904C12.7726 17.8556 12.2361 17.9966 11.69 18.0004H9.43C8.00977 23.6915 10.1581 29.6776 14.8731 33.1668C19.588 36.656 25.9407 36.9609 30.9681 33.9393C35.9955 30.9177 38.7073 25.1649 37.8386 19.3639C36.97 13.563 32.692 8.85685 27 7.44043Z" fill="#E2E2E6"></path><path id="Path_4" d="M23.5 25H18.5C18.2239 25 18 25.2239 18 25.5V35C18 36.6569 19.3431 38 21 38C22.6569 38 24 36.6569 24 35V25.5C24 25.2239 23.7761 25 23.5 25Z" fill="#F43939"></path><path id="Path_5" d="M11.5 21H6.5C6.22386 21 6 21.2239 6 21.5V35C6 36.6569 7.34315 38 9 38C10.6569 38 12 36.6569 12 35V21.5C12 21.2239 11.7761 21 11.5 21Z" fill="#F43939"></path><path id="Shape" fill-rule="evenodd" clip-rule="evenodd" d="M19 22.9995H23C24.3261 22.9995 25.5979 22.4727 26.5355 21.5351C27.4732 20.5974 28 19.3256 28 17.9995V6.76953C28 4.00811 25.7614 1.76953 23 1.76953C20.2386 1.76953 18 4.00811 18 6.76953V21.9995C18 22.5518 18.4477 22.9995 19 22.9995ZM23 20.9995H20V6.76953C20 5.11268 21.3431 3.76953 23 3.76953C24.6569 3.76953 26 5.11268 26 6.76953V17.9995C26 19.6564 24.6569 20.9995 23 20.9995Z" fill="#2B273C"></path><path id="Shape_2" fill-rule="evenodd" clip-rule="evenodd" d="M3 2H15C15.5523 2 16 2.44772 16 3V15C16 17.2091 14.2091 19 12 19H6C3.79086 19 2 17.2091 2 15V3C2 2.44772 2.44772 2 3 2ZM12 17C13.1046 17 14 16.1046 14 15V4H12V12C12 12.5523 11.5523 13 11 13C10.4477 13 10 12.5523 10 12V4H8V12C8 12.5523 7.55228 13 7 13C6.44772 13 6 12.5523 6 12V4H4V15C4 16.1046 4.89543 17 6 17H12Z" fill="#2B273C"></path></g></svg> 