<?xml version="1.0" encoding="UTF-8"?> <svg xmlns="http://www.w3.org/2000/svg" width="40" height="40" viewBox="0 0 40 40" fill="none"><g id="40x40_home_cleaning_v2"><path id="Path" d="M20 11C16.7963 10.9963 14.1548 13.5101 14 16.71C17.3273 17.3984 20.1002 19.6849 21.41 22.82C24.34 22.0861 26.2677 19.2884 25.9099 16.2891C25.5521 13.2898 23.0205 11.0241 20 11Z" fill="#E2E2E6"></path><path id="Oval" d="M25.5 11C27.433 11 29 9.433 29 7.5C29 5.567 27.433 4 25.5 4C23.567 4 22 5.567 22 7.5C22 9.433 23.567 11 25.5 11Z" fill="#E2E2E6"></path><path id="Oval_2" d="M18.5 7C19.8807 7 21 5.88071 21 4.5C21 3.11929 19.8807 2 18.5 2C17.1193 2 16 3.11929 16 4.5C16 5.88071 17.1193 7 18.5 7Z" fill="#E2E2E6"></path><path id="Path_2" d="M20.43 21C21.3526 22.3403 21.936 23.8845 22.13 25.5L23.49 36.64C23.5476 37.0996 23.4927 37.5663 23.33 38H35L38.29 21H20.43Z" fill="#F43939"></path><path id="Shape" fill-rule="evenodd" clip-rule="evenodd" d="M13 18.57C16.7438 19.0487 19.687 22.0042 20.15 25.75L21.51 36.88C21.5419 37.1638 21.4509 37.4476 21.26 37.66C21.0704 37.8758 20.7972 37.9996 20.51 38H3.4C3.11436 37.9992 2.8427 37.8763 2.65352 37.6623C2.46435 37.4483 2.37573 37.1636 2.41 36.88L3.81 25.75C4.27358 21.9896 7.23894 19.0283 11 18.57V3C11 2.44772 11.4477 2 12 2C12.5523 2 13 2.44772 13 3V18.57ZM5.76 26L4.53 36H19.38L18.28 26.94C18.1906 26.9752 18.096 26.9954 18 27H9C8.44772 27 8 26.5523 8 26C8 25.4477 8.44772 25 9 25H18C17.2229 22.0839 14.4702 20.1418 11.4623 20.3875C8.45443 20.6333 6.05348 22.9964 5.76 26Z" fill="#2B273C"></path><path id="Path_3" d="M31.62 12.8398C33.4867 12.8398 35 14.3531 35 16.2198V18.9998H37V16.2198C37 13.2486 34.5913 10.8398 31.62 10.8398H31.38C28.4087 10.8398 26 13.2486 26 16.2198V22.9998C26 23.5521 26.4477 23.9998 27 23.9998C27.5523 23.9998 28 23.5521 28 22.9998V16.2198C28 14.3531 29.5133 12.8398 31.38 12.8398H31.62Z" fill="#2B273C"></path></g></svg> 