<?xml version="1.0" encoding="UTF-8"?> <svg xmlns="http://www.w3.org/2000/svg" width="40" height="40" viewBox="0 0 40 40" fill="none"><path d="M34 4H5C3.89543 4 3 4.89543 3 6V13C3 14.1046 3.89543 15 5 15H12.52L16.3 5.84C16.4534 5.46657 16.8163 5.22201 17.22 5.22C17.6273 5.21796 17.9952 5.46321 18.15 5.84L21.92 15H34C35.1046 15 36 14.1046 36 13V6C36 4.89543 35.1046 4 34 4ZM12.44 24.79L5.67 22H5C3.89543 22 3 22.8954 3 24V31C3 32.1046 3.89543 33 5 33H15.82L12.44 24.79ZM22 24.79L18.62 33H22C23.1046 33 24 32.1046 24 31V24L22 24.79Z" fill="#E2E2E6"></path><path d="M17.22 34.7798C16.8163 34.7777 16.4534 34.5332 16.3 34.1598L12.44 24.7898L3.05999 20.9198C2.69123 20.7627 2.4519 20.4006 2.4519 19.9998C2.4519 19.5989 2.69123 19.2368 3.05999 19.0798L12.44 15.2098L16.3 5.83975C16.4534 5.46633 16.8163 5.22177 17.22 5.21974C17.6273 5.21771 17.9952 5.46296 18.15 5.83975L22 15.2098L31.37 19.0798C31.7387 19.2368 31.9781 19.5989 31.9781 19.9998C31.9781 20.4006 31.7387 20.7627 31.37 20.9198L22 24.7898L18.14 34.1598C17.9866 34.5332 17.6237 34.7777 17.22 34.7798ZM6.06999 19.9998L13.58 23.0998C13.8281 23.199 14.0262 23.3935 14.13 23.6398L17.22 31.1498L20.32 23.6398C20.4215 23.3954 20.6156 23.2012 20.86 23.0998L28.38 19.9998L20.86 16.8998C20.6156 16.7983 20.4215 16.6041 20.32 16.3598L17.22 8.84975L14.13 16.3598C14.0262 16.606 13.8281 16.8005 13.58 16.8998L6.06999 19.9998Z" fill="#2B273C"></path><path d="M26.37 9.08019L29.53 10.3802L30.83 13.5402C30.9841 13.9153 31.3495 14.1602 31.755 14.1602C32.1605 14.1602 32.5259 13.9153 32.68 13.5402L34 10.3802L37.16 9.08019C37.5295 8.92369 37.7697 8.56147 37.77 8.16019C37.7737 7.75528 37.5329 7.38809 37.16 7.23019L34 5.93019L32.7 2.78019C32.5459 2.40507 32.1805 2.16016 31.775 2.16016C31.3695 2.16016 31.0041 2.40507 30.85 2.78019L29.55 5.93019L26.39 7.23019C26.0132 7.38498 25.768 7.75285 25.77 8.16019C25.7686 8.55908 26.0044 8.92064 26.37 9.08019ZM37.14 31.0002L34 29.7002L32.7 26.5402C32.5459 26.1651 32.1805 25.9202 31.775 25.9202C31.3695 25.9202 31.0041 26.1651 30.85 26.5402L29.55 29.7002L26.37 31.0002C25.9966 31.1536 25.752 31.5165 25.75 31.9202C25.748 32.3275 25.9932 32.6954 26.37 32.8502L29.53 34.1502L30.83 37.3002C30.9841 37.6753 31.3495 37.9202 31.755 37.9202C32.1605 37.9202 32.5259 37.6753 32.68 37.3002L34 34.1502L37.16 32.8502C37.5329 32.6923 37.7737 32.3251 37.77 31.9202C37.7663 31.514 37.5173 31.1505 37.14 31.0002Z" fill="#EF3C3C"></path></svg> 