<?xml version="1.0" encoding="UTF-8"?> <svg xmlns="http://www.w3.org/2000/svg" width="40" height="40" viewBox="0 0 40 40" fill="none"><path d="M14 24H9V31C9 33.2091 10.7909 35 13 35C15.2091 35 17 33.2091 17 31V25.8L14 24Z" fill="#EE3B3C"></path><path d="M7.99999 13.9997H14L16.07 13.1097C17.5342 10.4398 17.2388 7.14952 15.3224 4.78313C13.4059 2.41674 10.2489 1.44397 7.33299 2.32136C4.41705 3.19875 2.32103 5.75212 2.02864 8.78313C1.73625 11.8141 3.30553 14.7211 5.99999 16.1397L7.99999 13.9997ZM30 19.1297V31.9997L19.19 26.5997C19.0654 27.2254 19.0018 27.8617 19 28.4997C18.9942 33.5528 22.9451 37.7261 27.9909 37.9969C33.0367 38.2677 37.4115 34.5411 37.9466 29.5165C38.4816 24.4918 34.9897 19.9276 30 19.1297Z" fill="#E2E2E6"></path><path d="M31 15H30V23H31C33.2091 23 35 21.2091 35 19C35 16.7909 33.2091 15 31 15Z" fill="#EE3B3C"></path><path d="M30.53 5.34003C30.2206 5.1614 29.8394 5.1614 29.53 5.34003L13.77 13H8.77C6.69179 13 5.00551 14.6818 5 16.76V21.24C5.00549 23.3143 6.68569 24.9945 8.76 25H13.76L29.55 33C29.6893 33.0714 29.8435 33.1091 30 33.11C30.5523 33.11 31 32.6623 31 32.11V6.19003C31.0007 5.84453 30.823 5.52314 30.53 5.34003ZM7 21.24V16.76C7 16.2932 7.18543 15.8456 7.51549 15.5155C7.84556 15.1855 8.29322 15 8.76 15H13V23H8.76C8.29322 23 7.84556 22.8146 7.51549 22.4845C7.18543 22.1545 7 21.7068 7 21.24ZM29 30.47L15 23.39V14.62L29 7.79003V30.47Z" fill="#2B273C"></path></svg> 